<svg xmlns="http://www.w3.org/2000/svg" xmlns:xlink="http://www.w3.org/1999/xlink" width="40" zoomAndPan="magnify" viewBox="0 0 30 30.000001" height="40" preserveAspectRatio="xMidYMid meet" version="1.0"><defs><clipPath id="84985ca427"><path d="M 0.484375 17 L 23 17 L 23 27 L 0.484375 27 Z M 0.484375 17 " clip-rule="nonzero"/></clipPath><clipPath id="566ecfe40c"><path d="M 23 17 L 29.515625 17 L 29.515625 27 L 23 27 Z M 23 17 " clip-rule="nonzero"/></clipPath></defs><g clip-path="url(#84985ca427)"><path stroke-linecap="round" transform="matrix(1.385631, 0, 0, 1.382022, -0.207374, 0.00489907)" fill="none" stroke-linejoin="round" d="M 15.375691 18.374191 L 15.375691 16.624603 C 15.375691 15.69752 15.006388 14.80718 14.349534 14.151438 C 13.692681 13.49287 12.80466 13.125428 11.874353 13.125428 L 4.874494 13.125428 C 3.947006 13.125428 3.056166 13.49287 2.399313 14.151438 C 1.742459 14.80718 1.375975 15.69752 1.375975 16.624603 L 1.375975 18.374191 " stroke="#5d5d5d" stroke-width="1.5" stroke-opacity="1" stroke-miterlimit="4"/></g><path stroke-linecap="round" transform="matrix(1.385631, 0, 0, 1.382022, -0.207374, 0.00489907)" fill="none" stroke-linejoin="round" d="M 8.375833 9.626253 C 10.306926 9.626253 11.874353 8.05756 11.874353 6.124251 C 11.874353 4.190943 10.306926 2.625076 8.375833 2.625076 C 6.441921 2.625076 4.874494 4.190943 4.874494 6.124251 C 4.874494 8.05756 6.441921 9.626253 8.375833 9.626253 Z M 8.375833 9.626253 " stroke="#5d5d5d" stroke-width="1.5" stroke-opacity="1" stroke-miterlimit="4"/><g clip-path="url(#566ecfe40c)"><path stroke-linecap="round" transform="matrix(1.385631, 0, 0, 1.382022, -0.207374, 0.00489907)" fill="none" stroke-linejoin="round" d="M 20.62488 18.374191 L 20.62488 16.624603 C 20.62488 15.850149 20.365522 15.095481 19.891911 14.482136 C 19.415481 13.871617 18.75017 13.433514 18.000286 13.238487 " stroke="#5d5d5d" stroke-width="1.5" stroke-opacity="1" stroke-miterlimit="4"/></g><path stroke-linecap="round" transform="matrix(1.385631, 0, 0, 1.382022, -0.207374, 0.00489907)" fill="none" stroke-linejoin="round" d="M 14.498947 2.738135 C 15.25165 2.930335 15.91978 3.368439 16.39621 3.98461 C 16.872641 4.597955 17.131999 5.352624 17.131999 6.129904 C 17.131999 6.907185 16.872641 7.661853 16.39621 8.275198 C 15.91978 8.888543 15.25165 9.326647 14.498947 9.518847 " stroke="#5d5d5d" stroke-width="1.5" stroke-opacity="1" stroke-miterlimit="4"/></svg>