<svg xmlns="http://www.w3.org/2000/svg" xmlns:xlink="http://www.w3.org/1999/xlink" width="40" zoomAndPan="magnify" viewBox="0 0 30 30.000001" height="40" preserveAspectRatio="xMidYMid meet" version="1.0"><path stroke-linecap="round" transform="matrix(1.382489, 0, 0, 1.382489, 0.48387, 0.00000193548)" fill="none" stroke-linejoin="round" d="M 18.236276 4.034842 C 17.787018 3.585584 17.258646 3.232394 16.673763 2.9894 C 16.08888 2.74923 15.46444 2.622082 14.831524 2.622082 C 14.198607 2.622082 13.574167 2.74923 12.989284 2.9894 C 12.404401 3.232394 11.873203 3.585584 11.426771 4.034842 L 10.5 4.961613 L 9.573229 4.034842 C 8.669063 3.130676 7.445612 2.624907 6.168477 2.624907 C 4.891341 2.624907 3.667891 3.130676 2.763724 4.034842 C 1.862383 4.936183 1.356615 6.159634 1.356615 7.436769 C 1.356615 8.713905 1.862383 9.937355 2.763724 10.841522 L 3.693321 11.768293 L 10.5 18.574972 L 17.30668 11.768293 L 18.236276 10.841522 C 18.682708 10.39509 19.035898 9.863892 19.278893 9.279009 C 19.521888 8.696952 19.646211 8.069686 19.646211 7.436769 C 19.646211 6.806678 19.521888 6.179413 19.278893 5.59453 C 19.035898 5.012472 18.682708 4.481275 18.236276 4.034842 Z M 18.236276 4.034842 " stroke="#5d5d5d" stroke-width="1.5" stroke-opacity="1" stroke-miterlimit="4"/></svg>