<svg xmlns="http://www.w3.org/2000/svg" xmlns:xlink="http://www.w3.org/1999/xlink" width="40" zoomAndPan="magnify" viewBox="0 0 30 30.000001" height="40" preserveAspectRatio="xMidYMid meet" version="1.0"><defs><clipPath id="e5765796a0"><path d="M 0.484375 0 L 29.515625 0 L 29.515625 29.03125 L 0.484375 29.03125 Z M 0.484375 0 " clip-rule="nonzero"/></clipPath></defs><g clip-path="url(#e5765796a0)"><path fill="#ffffff" d="M 0.484375 0 L 29.515625 0 L 29.515625 29.03125 L 0.484375 29.03125 Z M 0.484375 0 " fill-opacity="1" fill-rule="nonzero"/><path fill="#ffffff" d="M 0.484375 0 L 29.515625 0 L 29.515625 29.03125 L 0.484375 29.03125 Z M 0.484375 0 " fill-opacity="1" fill-rule="nonzero"/></g><path stroke-linecap="round" transform="matrix(1.382489, 0, 0, 1.382489, 0.48387, 0.00000193548)" fill="none" stroke-linejoin="round" d="M 9.624089 16.625363 C 13.492227 16.625363 16.625729 13.49186 16.625729 9.623722 C 16.625729 5.75841 13.492227 2.624907 9.624089 2.624907 C 5.758776 2.624907 2.625274 5.75841 2.625274 9.623722 C 2.625274 13.49186 5.758776 16.625363 9.624089 16.625363 Z M 9.624089 16.625363 " stroke="#202020" stroke-width="2" stroke-opacity="1" stroke-miterlimit="4"/><path stroke-linecap="round" transform="matrix(1.382489, 0, 0, 1.382489, 0.48387, 0.00000193548)" fill="none" stroke-linejoin="round" d="M 18.374727 18.37436 L 14.56875 14.568384 " stroke="#202020" stroke-width="2" stroke-opacity="1" stroke-miterlimit="4"/></svg>