<svg xmlns="http://www.w3.org/2000/svg" xmlns:xlink="http://www.w3.org/1999/xlink" width="40" zoomAndPan="magnify" viewBox="0 0 30 30.000001" height="40" preserveAspectRatio="xMidYMid meet" version="1.0"><path stroke-linecap="round" transform="matrix(1.382489, 0, 0, 1.382489, 0.48387, 0.00000193548)" fill="none" stroke-linejoin="round" d="M 17.498815 6.125728 L 3.501185 6.125728 C 2.534857 6.125728 1.749362 6.908397 1.749362 7.874725 L 1.749362 16.625363 C 1.749362 17.591691 2.534857 18.37436 3.501185 18.37436 L 17.498815 18.37436 C 18.465143 18.37436 19.250638 17.591691 19.250638 16.625363 L 19.250638 7.874725 C 19.250638 6.908397 18.465143 6.125728 17.498815 6.125728 Z M 17.498815 6.125728 " stroke="#5d5d5d" stroke-width="1.5" stroke-opacity="1" stroke-miterlimit="4"/><path stroke-linecap="round" transform="matrix(1.382489, 0, 0, 1.382489, 0.48387, 0.00000193548)" fill="none" stroke-linejoin="round" d="M 14.00082 18.37436 L 14.00082 4.373905 C 14.00082 3.910519 13.814336 3.466913 13.486576 3.136327 C 13.158815 2.808566 12.715208 2.624907 12.248998 2.624907 L 8.751003 2.624907 C 8.284792 2.624907 7.841185 2.808566 7.513425 3.136327 C 7.185664 3.466913 6.99918 3.910519 6.99918 4.373905 L 6.99918 18.37436 " stroke="#5d5d5d" stroke-width="1.5" stroke-opacity="1" stroke-miterlimit="4"/></svg>