<svg xmlns="http://www.w3.org/2000/svg" xmlns:xlink="http://www.w3.org/1999/xlink" width="40" zoomAndPan="magnify" viewBox="0 0 30 30.000001" height="40" preserveAspectRatio="xMidYMid meet" version="1.0"><path stroke-linecap="round" transform="matrix(1.380584, 0, 0, 1.375212, 0.503866, 1.398827)" fill-opacity="0.31" fill="#000000" fill-rule="nonzero" stroke-linejoin="round" d="M 18.235631 3.033339 C 17.788583 2.587385 17.256652 2.232326 16.673792 1.990886 C 16.088102 1.746606 15.462801 1.624466 14.831841 1.624466 C 14.198051 1.624466 13.572749 1.746606 12.989889 1.990886 C 12.4042 2.232326 11.875098 2.587385 11.42805 3.033339 L 10.500001 3.962173 L 9.571952 3.033339 C 8.669367 2.130069 7.444229 1.624466 6.168161 1.624466 C 4.892094 1.624466 3.666955 2.130069 2.764371 3.033339 C 1.861787 3.936609 1.355321 5.160852 1.355321 6.436223 C 1.355321 7.714435 1.861787 8.938677 2.764371 9.841947 L 3.69242 10.767941 L 10.500001 17.576548 L 17.307582 10.767941 L 18.235631 9.841947 C 18.682679 9.393153 19.036357 8.864825 19.279686 8.279688 C 19.520187 7.694551 19.644681 7.069648 19.644681 6.436223 C 19.644681 5.805638 19.520187 5.180735 19.279686 4.595598 C 19.036357 4.010461 18.682679 3.479293 18.235631 3.033339 Z M 18.235631 3.033339 " stroke="#e0e0e0" stroke-width="1.5" stroke-opacity="1" stroke-miterlimit="4"/></svg>