<svg xmlns="http://www.w3.org/2000/svg" xmlns:xlink="http://www.w3.org/1999/xlink" width="40" zoomAndPan="magnify" viewBox="0 0 30 30.000001" height="40" preserveAspectRatio="xMidYMid meet" version="1.0"><defs><clipPath id="1f82a7e47c"><path d="M 0.484375 0 L 29.515625 0 L 29.515625 28 L 0.484375 28 Z M 0.484375 0 " clip-rule="nonzero"/></clipPath></defs><g clip-path="url(#1f82a7e47c)"><path fill="#ffb61d" d="M 13.816406 1.4375 C 14.167969 0.355469 15.695312 0.355469 16.042969 1.4375 L 18.613281 9.359375 C 18.769531 9.84375 19.21875 10.171875 19.726562 10.171875 L 28.03125 10.171875 C 29.167969 10.171875 29.640625 11.628906 28.722656 12.296875 L 22 17.195312 C 21.589844 17.492188 21.417969 18.023438 21.574219 18.507812 L 24.140625 26.429688 C 24.492188 27.511719 23.257812 28.414062 22.339844 27.742188 L 15.617188 22.847656 C 15.207031 22.546875 14.652344 22.546875 14.242188 22.847656 L 7.519531 27.742188 C 6.601562 28.414062 5.367188 27.511719 5.71875 26.429688 L 8.285156 18.507812 C 8.441406 18.023438 8.269531 17.492188 7.859375 17.195312 L 1.140625 12.296875 C 0.222656 11.628906 0.695312 10.171875 1.828125 10.171875 L 10.136719 10.171875 C 10.644531 10.171875 11.09375 9.84375 11.25 9.359375 Z M 13.816406 1.4375 " fill-opacity="1" fill-rule="nonzero"/></g></svg>