<svg xmlns="http://www.w3.org/2000/svg" xmlns:xlink="http://www.w3.org/1999/xlink" width="40" zoomAndPan="magnify" viewBox="0 0 30 30.000001" height="40" preserveAspectRatio="xMidYMid meet" version="1.0"><defs><clipPath id="c2110b1819"><path d="M 0.484375 0 L 29.515625 0 L 29.515625 29.03125 L 0.484375 29.03125 Z M 0.484375 0 " clip-rule="nonzero"/></clipPath></defs><g clip-path="url(#c2110b1819)"><path fill="#ffffff" d="M 0.484375 0 L 29.515625 0 L 29.515625 29.03125 L 0.484375 29.03125 Z M 0.484375 0 " fill-opacity="1" fill-rule="nonzero"/><path fill="#ffffff" d="M 0.484375 0 L 29.515625 0 L 29.515625 29.03125 L 0.484375 29.03125 Z M 0.484375 0 " fill-opacity="1" fill-rule="nonzero"/></g><path stroke-linecap="round" transform="matrix(1.380584, 0, 0, 1.375212, 0.503866, 1.398824)" fill-opacity="0.31" fill="#000000" fill-rule="nonzero" stroke-linejoin="round" d="M 18.235631 3.033342 C 17.788583 2.587388 17.256652 2.232329 16.673792 1.990889 C 16.088102 1.746609 15.462801 1.624468 14.831841 1.624468 C 14.198051 1.624468 13.572749 1.746609 12.989889 1.990889 C 12.4042 2.232329 11.875098 2.587388 11.42805 3.033342 L 10.500001 3.962176 L 9.571952 3.033342 C 8.669367 2.130072 7.444229 1.624468 6.168161 1.624468 C 4.892094 1.624468 3.666955 2.130072 2.764371 3.033342 C 1.861787 3.936611 1.355321 5.160854 1.355321 6.436225 C 1.355321 7.714437 1.861787 8.93868 2.764371 9.84195 L 3.69242 10.767943 L 10.500001 17.576551 L 17.307582 10.767943 L 18.235631 9.84195 C 18.682679 9.393155 19.036357 8.864828 19.279686 8.279691 C 19.520187 7.694554 19.644681 7.06965 19.644681 6.436225 C 19.644681 5.805641 19.520187 5.180737 19.279686 4.595601 C 19.036357 4.010464 18.682679 3.479296 18.235631 3.033342 Z M 18.235631 3.033342 " stroke="#e0e0e0" stroke-width="1.5" stroke-opacity="1" stroke-miterlimit="4"/></svg>