<svg width="24" height="24" viewBox="0 0 24 24" fill="none" xmlns="http://www.w3.org/2000/svg">
<path d="M19.0035 13.8443C18.9452 13.9441 18.903 14.0597 18.8248 14.1401C18.6579 14.3118 18.4451 14.358 18.2183 14.2751C17.9915 14.1922 17.866 14.0212 17.8363 13.7823C17.8308 13.7191 17.8293 13.6556 17.8319 13.5922C17.8319 11.5904 17.8319 9.58878 17.8319 7.58723C17.8319 7.08525 17.6271 6.69703 17.1714 6.47099C17.031 6.40371 16.8791 6.36374 16.7237 6.3532C16.457 6.33449 16.188 6.34806 15.8977 6.34806C15.8977 6.54878 15.9047 6.74693 15.8977 6.94471C15.8959 7.04815 15.8664 7.14921 15.8125 7.23749C15.7586 7.32577 15.6821 7.39808 15.5909 7.44698C15.4997 7.49587 15.3972 7.51958 15.2938 7.51566C15.1904 7.51174 15.09 7.48033 15.0028 7.42467C14.8193 7.30945 14.7301 7.13662 14.7268 6.92123C14.7239 6.73776 14.7268 6.55098 14.7268 6.35504H12.0599C12.0599 6.5275 12.0599 6.70106 12.0599 6.87499C12.0573 7.24964 11.8203 7.5109 11.4809 7.51457C11.1359 7.51861 10.8912 7.25441 10.8886 6.87389C10.8886 6.70363 10.8886 6.53337 10.8886 6.35357H8.25102C8.25102 6.53007 8.25102 6.70437 8.25102 6.87866C8.24845 7.25148 8.00811 7.51274 7.66868 7.51457C7.32926 7.51641 7.08158 7.25515 7.08158 6.8849C7.08158 6.71024 7.08158 6.53521 7.08158 6.32752C6.73518 6.34586 6.39356 6.32385 6.06955 6.38953C5.52831 6.49888 5.18888 6.96563 5.17604 7.52999C5.172 7.70538 5.17604 7.88152 5.17604 8.05692C5.17604 10.8946 5.17604 13.7312 5.17604 16.5667C5.17604 17.0734 5.37015 17.4734 5.83654 17.6976C6.00796 17.7789 6.19504 17.8218 6.38475 17.8235C9.79781 17.8303 13.2104 17.8316 16.6225 17.8275C17.3013 17.8275 17.7824 17.3688 17.8308 16.69C17.8433 16.5175 17.8866 16.363 18.0117 16.2401C18.0782 16.175 18.1594 16.1267 18.2484 16.0993C18.3374 16.0719 18.4316 16.0662 18.5233 16.0826C18.6149 16.0991 18.7013 16.1372 18.7752 16.1938C18.8491 16.2505 18.9084 16.3239 18.9481 16.4082C18.9691 16.4518 18.987 16.4966 19.0065 16.5406V16.9215C18.9953 16.9422 18.9864 16.9641 18.9801 16.9868C18.7929 18.1632 17.8469 18.9973 16.661 18.9995C13.2242 19.0056 9.78717 19.0062 6.34989 19.0013C6.01161 19.0069 5.67676 18.9329 5.37236 18.7852C4.47078 18.3331 4.00623 17.5993 4.00476 16.592C3.99962 13.5902 3.99864 10.5881 4.00182 7.58576C4.00182 7.51751 4.00182 7.44889 4.00659 7.38101C4.04329 6.85261 4.22676 6.38329 4.57682 5.98663C5.05678 5.44098 5.66334 5.17422 6.38695 5.17201C6.61446 5.17201 6.84233 5.17201 7.07901 5.17201C7.07901 5.01276 7.08708 4.87112 7.07901 4.73168C7.05332 4.36694 7.1979 4.11926 7.54796 4H7.78134C8.1303 4.11926 8.27561 4.36694 8.25139 4.72985C8.24185 4.87369 8.25139 5.01827 8.25139 5.16211H10.8882C10.8882 5.01129 10.8963 4.86855 10.8882 4.72985C10.8637 4.36694 11.0075 4.11926 11.3568 4H11.5909C11.9403 4.11926 12.0856 4.36694 12.0614 4.72985C12.0518 4.87369 12.0614 5.01827 12.0614 5.16211H14.7276C14.7276 5.01129 14.7353 4.86855 14.7257 4.72985C14.7 4.36694 14.8454 4.11926 15.1936 4H15.4281C15.7774 4.11926 15.9227 4.36694 15.8985 4.73022C15.8889 4.87406 15.8966 5.01863 15.8966 5.17422C16.1884 5.17422 16.4614 5.16137 16.7329 5.17642C17.6576 5.22816 18.342 5.66922 18.7584 6.49411C18.8766 6.72822 18.9232 6.99829 19.0024 7.25221L19.0035 13.8443Z" fill="black"/>
<path d="M14.0396 15.8328C13.7908 15.8328 13.5409 15.8467 13.2928 15.8298C12.6844 15.7891 12.2313 15.3679 12.192 14.7606C12.159 14.2392 12.159 13.7162 12.192 13.1948C12.2287 12.5971 12.6635 12.1656 13.2613 12.1289C13.7778 12.0977 14.2958 12.0977 14.8124 12.1289C15.4101 12.1656 15.8464 12.5949 15.8846 13.193C15.918 13.7144 15.918 14.2374 15.8846 14.7587C15.8431 15.3921 15.3518 15.8229 14.7136 15.8368C14.4891 15.842 14.2645 15.8368 14.0399 15.8368L14.0396 15.8328ZM14.7202 13.2979H13.3626V14.6556H14.7202V13.2979Z" fill="black"/>
<path d="M8.25062 10.155C8.25019 10.2705 8.21557 10.3833 8.15113 10.4791C8.08669 10.575 7.99532 10.6496 7.88853 10.6936C7.78175 10.7376 7.66432 10.749 7.55107 10.7264C7.43781 10.7037 7.33379 10.6481 7.25213 10.5664C7.17046 10.4847 7.1148 10.3807 7.09216 10.2675C7.06952 10.1542 7.08092 10.0368 7.12491 9.92999C7.16891 9.8232 7.24354 9.73183 7.33939 9.66739C7.43524 9.60296 7.54802 9.56834 7.66351 9.5679C7.81922 9.5679 7.96856 9.62976 8.07866 9.73986C8.18877 9.84996 8.25062 9.9993 8.25062 10.155Z" fill="black"/>
<path d="M9.62973 10.1401C9.63221 10.0246 9.66883 9.91242 9.73497 9.81771C9.80112 9.72301 9.89383 9.65001 10.0014 9.60792C10.109 9.56583 10.2266 9.55654 10.3395 9.58122C10.4523 9.6059 10.5553 9.66345 10.6355 9.7466C10.7157 9.82975 10.7695 9.93479 10.7901 10.0485C10.8106 10.1621 10.7971 10.2794 10.7511 10.3853C10.7052 10.4913 10.6289 10.5813 10.5318 10.644C10.4348 10.7067 10.3213 10.7392 10.2058 10.7375C10.0502 10.7346 9.90216 10.67 9.79414 10.558C9.68611 10.446 9.62698 10.2957 9.62973 10.1401Z" fill="black"/>
<path d="M13.3478 10.157C13.3469 10.2726 13.3118 10.3852 13.247 10.4809C13.1822 10.5765 13.0905 10.6508 12.9835 10.6943C12.8765 10.7379 12.759 10.7488 12.6458 10.7257C12.5326 10.7026 12.4288 10.6465 12.3475 10.5644C12.2662 10.4824 12.2109 10.3781 12.1888 10.2647C12.1667 10.1513 12.1786 10.0339 12.2231 9.92728C12.2676 9.82067 12.3427 9.72963 12.4389 9.66564C12.5351 9.60165 12.6481 9.56758 12.7636 9.56772C12.9192 9.5685 13.0681 9.631 13.1776 9.74149C13.2872 9.85199 13.3484 10.0014 13.3478 10.157Z" fill="black"/>
<path d="M15.3165 9.56772C15.432 9.56867 15.5447 9.6038 15.6402 9.66869C15.7358 9.73358 15.8101 9.82532 15.8536 9.93234C15.8971 10.0394 15.9079 10.1569 15.8847 10.27C15.8615 10.3832 15.8053 10.487 15.7232 10.5683C15.6411 10.6495 15.5368 10.7047 15.4234 10.7267C15.31 10.7488 15.1926 10.7368 15.086 10.6922C14.9794 10.6476 14.8885 10.5725 14.8245 10.4763C14.7606 10.3801 14.7266 10.2671 14.7268 10.1515C14.7277 9.99594 14.7903 9.84707 14.9008 9.73761C15.0114 9.62814 15.1609 9.56704 15.3165 9.56772Z" fill="black"/>
<path d="M8.25062 12.7036C8.25019 12.8191 8.21557 12.9318 8.15113 13.0277C8.08669 13.1235 7.99532 13.1982 7.88853 13.2422C7.78175 13.2862 7.66432 13.2976 7.55107 13.2749C7.43781 13.2523 7.33379 13.1966 7.25213 13.1149C7.17046 13.0333 7.1148 12.9293 7.09216 12.816C7.06952 12.7028 7.08092 12.5853 7.12491 12.4785C7.16891 12.3718 7.24354 12.2804 7.33939 12.2159C7.43524 12.1515 7.54802 12.1169 7.66351 12.1165C7.81922 12.1165 7.96856 12.1783 8.07866 12.2884C8.18877 12.3985 8.25062 12.5479 8.25062 12.7036Z" fill="black"/>
<path d="M10.7994 12.7069C10.7984 12.8225 10.7632 12.9351 10.6983 13.0306C10.6333 13.1262 10.5415 13.2003 10.4345 13.2438C10.3274 13.2872 10.2099 13.298 10.0968 13.2747C9.9836 13.2515 9.87986 13.1952 9.79863 13.113C9.7174 13.0309 9.66232 12.9265 9.64033 12.8131C9.61834 12.6997 9.63043 12.5823 9.67507 12.4758C9.71972 12.3692 9.79491 12.2783 9.89118 12.2144C9.98744 12.1505 10.1005 12.1166 10.216 12.1169C10.3716 12.1179 10.5204 12.1805 10.6298 12.2912C10.7392 12.4018 10.8002 12.5513 10.7994 12.7069Z" fill="black"/>
<path d="M8.25059 15.2436C8.25194 15.3591 8.21907 15.4725 8.1561 15.5693C8.09313 15.6662 8.00289 15.7422 7.89676 15.7878C7.79064 15.8335 7.67337 15.8466 7.55976 15.8257C7.44615 15.8048 7.34128 15.7507 7.25838 15.6702C7.17548 15.5898 7.11825 15.4866 7.09393 15.3737C7.0696 15.2607 7.07926 15.1431 7.12169 15.0357C7.16411 14.9282 7.23741 14.8357 7.33232 14.7699C7.42724 14.7041 7.53953 14.6678 7.65504 14.6657C7.81063 14.6634 7.96075 14.723 8.07242 14.8314C8.18409 14.9398 8.24817 15.088 8.25059 15.2436Z" fill="black"/>
<path d="M10.7994 15.2491C10.7997 15.3646 10.7658 15.4776 10.702 15.5738C10.6381 15.6701 10.5472 15.7453 10.4406 15.7899C10.3341 15.8346 10.2167 15.8467 10.1033 15.8247C9.98994 15.8028 9.88558 15.7477 9.80342 15.6665C9.72126 15.5854 9.66497 15.4817 9.64167 15.3685C9.61836 15.2554 9.62908 15.1379 9.67246 15.0308C9.71584 14.9238 9.78995 14.832 9.88544 14.767C9.98093 14.702 10.0935 14.6667 10.209 14.6656C10.3647 14.6647 10.5143 14.7257 10.625 14.8351C10.7357 14.9445 10.7985 15.0934 10.7994 15.2491Z" fill="black"/>
</svg>
