<svg width="37" height="36" viewBox="0 0 37 36" fill="none" xmlns="http://www.w3.org/2000/svg">
<path d="M0.982949 16C0.982949 13.1911 0.983358 11.116 1.11744 9.47485C1.25103 7.83985 1.51467 6.68192 2.01556 5.69886C2.92387 3.91619 4.37322 2.46684 6.15589 1.55853C7.13895 1.05764 8.29688 0.793998 9.93188 0.660413C11.573 0.526327 13.6481 0.525918 16.457 0.525918H20.457C23.266 0.525918 25.341 0.526327 26.9822 0.660413C28.6172 0.793998 29.7751 1.05764 30.7582 1.55853C32.5408 2.46684 33.9902 3.91619 34.8985 5.69886C35.3994 6.68192 35.663 7.83985 35.7966 9.47485C35.9307 11.116 35.9311 13.1911 35.9311 16V20C35.9311 22.8089 35.9307 24.884 35.7966 26.5252C35.663 28.1602 35.3994 29.3181 34.8985 30.3011C33.9902 32.0838 32.5408 33.5332 30.7582 34.4415C29.7751 34.9424 28.6172 35.206 26.9822 35.3396C25.341 35.4737 23.266 35.4741 20.457 35.4741H16.457C13.6481 35.4741 11.573 35.4737 9.93188 35.3396C8.29688 35.206 7.13895 34.9424 6.15589 34.4415C4.37322 33.5332 2.92387 32.0838 2.01556 30.3011C1.51467 29.3181 1.25103 28.1602 1.11744 26.5252C0.983358 24.884 0.982949 22.8089 0.982949 20V16Z" stroke="#B4BBB2" stroke-width="1.05184"/>
<path opacity="0.8" d="M17.3985 22.0914H11.6348C10.9054 22.0914 10.3132 22.6731 10.3132 23.3898C10.3132 24.1055 10.9054 24.6882 11.6348 24.6882H17.3985C18.1279 24.6882 18.7201 24.1055 18.7201 23.3898C18.7201 22.6731 18.1279 22.0914 17.3985 22.0914Z" fill="#B4BBB2"/>
<path opacity="0.8" d="M27.8436 13.6948C27.8436 12.9791 27.2515 12.3973 26.523 12.3973H20.7593C20.0299 12.3973 19.4377 12.9791 19.4377 13.6948C19.4377 14.4114 20.0299 14.9932 20.7593 14.9932H26.523C27.2515 14.9932 27.8436 14.4114 27.8436 13.6948Z" fill="#B4BBB2"/>
<path d="M16.342 13.6947C16.342 15.3309 14.9931 16.6571 13.3277 16.6571C11.6633 16.6571 10.3135 15.3309 10.3135 13.6947C10.3135 12.0595 11.6633 10.7333 13.3277 10.7333C14.9931 10.7333 16.342 12.0595 16.342 13.6947Z" fill="#A1D2FF"/>
<path d="M27.8437 23.3545C27.8437 24.9898 26.4949 26.3159 24.8295 26.3159C23.165 26.3159 21.8152 24.9898 21.8152 23.3545C21.8152 21.7183 23.165 20.3922 24.8295 20.3922C26.4949 20.3922 27.8437 21.7183 27.8437 23.3545Z" fill="#A1D2FF"/>
</svg>
