<svg width="14" height="13" viewBox="0 0 14 13" fill="none" xmlns="http://www.w3.org/2000/svg">
<path d="M6.49186 0.643089C6.6493 0.158555 7.33478 0.158553 7.49222 0.643087L8.6451 4.1913C8.71551 4.40799 8.91744 4.5547 9.14528 4.5547H12.8761C13.3856 4.5547 13.5974 5.20664 13.1852 5.5061L10.1669 7.69902C9.9826 7.83294 9.90547 8.07032 9.97588 8.28701L11.1288 11.8352C11.2862 12.3198 10.7316 12.7227 10.3195 12.4232L7.30117 10.2303C7.11684 10.0964 6.86724 10.0964 6.68291 10.2303L3.66462 12.4232C3.25245 12.7227 2.69788 12.3198 2.85532 11.8352L4.0082 8.28701C4.07861 8.07032 4.00148 7.83294 3.81715 7.69902L0.798858 5.5061C0.386689 5.20664 0.598515 4.5547 1.10798 4.5547H4.8388C5.06664 4.5547 5.26857 4.40799 5.33898 4.1913L6.49186 0.643089Z" fill="#FFB61D"/>
</svg>
