<svg width="22" height="21" viewBox="0 0 22 21" fill="none" xmlns="http://www.w3.org/2000/svg">
<g clip-path="url(#clip0_502_84)">
<path d="M15.375 18.375V16.625C15.375 15.6967 15.0063 14.8065 14.3499 14.1501C13.6935 13.4937 12.8033 13.125 11.875 13.125H4.875C3.94674 13.125 3.0565 13.4937 2.40013 14.1501C1.74375 14.8065 1.375 15.6967 1.375 16.625V18.375" stroke="#5D5D5D" stroke-width="1.5" stroke-linecap="round" stroke-linejoin="round"/>
<path d="M8.375 9.625C10.308 9.625 11.875 8.058 11.875 6.125C11.875 4.192 10.308 2.625 8.375 2.625C6.442 2.625 4.875 4.192 4.875 6.125C4.875 8.058 6.442 9.625 8.375 9.625Z" stroke="#5D5D5D" stroke-width="1.5" stroke-linecap="round" stroke-linejoin="round"/>
<path d="M20.625 18.375V16.625C20.6244 15.8495 20.3663 15.0962 19.8912 14.4833C19.4161 13.8704 18.7509 13.4326 18 13.2388" stroke="#5D5D5D" stroke-width="1.5" stroke-linecap="round" stroke-linejoin="round"/>
<path d="M14.5 2.73877C15.2529 2.93153 15.9202 3.36938 16.3967 3.98329C16.8732 4.5972 17.1319 5.35225 17.1319 6.12939C17.1319 6.90654 16.8732 7.66159 16.3967 8.2755C15.9202 8.88941 15.2529 9.32726 14.5 9.52002" stroke="#5D5D5D" stroke-width="1.5" stroke-linecap="round" stroke-linejoin="round"/>
</g>
<defs>
<clipPath id="clip0_502_84">
<rect width="21" height="21" fill="white" transform="translate(0.5)"/>
</clipPath>
</defs>
</svg>
